<svg width="48" height="48" viewBox="0 0 48 48" fill="none" xmlns="http://www.w3.org/2000/svg">
<g clip-path="url(#clip0_173_8068)">
<circle cx="24" cy="24" r="24" fill="#2F3137"/>
<path d="M28.5266 23.1023C28.5356 22.3738 28.7235 21.6596 29.0727 21.0261C29.4219 20.3926 29.921 19.8606 30.5236 19.4796C30.1407 18.9171 29.6361 18.4541 29.0495 18.1273C28.463 17.8005 27.8107 17.619 27.1443 17.5971C25.7225 17.4444 24.3451 18.4748 23.6194 18.4748C22.8813 18.4748 21.768 17.6123 20.5659 17.6378C19.7885 17.6633 19.0308 17.8962 18.3668 18.3135C17.7027 18.7308 17.1549 19.3184 16.7769 20.019C15.1403 22.9421 16.3622 27.2338 17.9296 29.5973C18.7146 30.7522 19.6328 32.0446 20.8325 31.9988C22.0075 31.9479 22.4444 31.228 23.8613 31.228C25.2683 31.228 25.6781 31.9988 26.9024 31.9683C28.1613 31.9479 28.9561 30.8082 29.7164 29.6405C30.2794 28.8169 30.7126 27.9068 31 26.9438C30.2675 26.6245 29.6426 26.0898 29.2032 25.4066C28.7637 24.7235 28.5293 23.922 28.5291 23.1023H28.5266ZM26.2162 16.0427C26.9025 15.1935 27.2408 14.102 27.1591 13C26.1096 13.1135 25.1401 13.6303 24.4438 14.4476C24.1034 14.847 23.8428 15.3116 23.6767 15.8149C23.5107 16.3182 23.4426 16.8503 23.4762 17.3808C24.0012 17.3863 24.5205 17.2689 24.9951 17.0376C25.4697 16.8062 25.8872 16.4644 26.2162 16.0427Z" fill="white"/>
</g>
<defs>
<clipPath id="clip0_173_8068">
<rect width="48" height="48" rx="24" fill="white"/>
</clipPath>
</defs>
</svg>
